<?xml version="1.0" encoding="UTF-8" standalone="no"?>
<!DOCTYPE svg PUBLIC "-//W3C//DTD SVG 1.1//EN" "http://www.w3.org/Graphics/SVG/1.1/DTD/svg11.dtd">
<svg width="100%" height="100%" viewBox="0 0 3000 3508" version="1.1" xmlns="http://www.w3.org/2000/svg" xmlns:xlink="http://www.w3.org/1999/xlink" xml:space="preserve" xmlns:serif="http://www.serif.com/" style="fill-rule:evenodd;clip-rule:evenodd;stroke-linejoin:round;stroke-miterlimit:2;">
    <g transform="matrix(1,0,0,1,27,-132.24328)">
        <path d="M637.032,1463.783L796.096,1579.35L716.564,1688.817L845.25,1730.629L784.493,1917.621L655.807,1875.808L655.807,2011.116L459.193,2011.116L459.193,1875.808L330.507,1917.621L269.75,1730.629L398.436,1688.817L318.904,1579.35L477.968,1463.783L557.5,1573.25L637.032,1463.783Z" style="fill:rgb(153,224,204);"/>
    </g>
    <g transform="matrix(1,0,0,1,438,-81.230976)">
        <text x="217.32px" y="1827.746px" style="font-family:'Helvetica-Bold', 'Helvetica';font-weight:700;font-size:400px;fill:rgb(248,248,248);">T<tspan x="454.625px 565.758px " y="1827.746px 1827.746px ">ic</tspan>ket</text>
    </g>
    <g transform="matrix(1,0,0,1,1432.199593,-599.776765)">
        <text x="378.102px" y="2346.292px" style="font-family:'Helvetica-Bold', 'Helvetica';font-weight:700;font-size:400px;fill:rgb(248,248,248);">Live</text>
    </g>
</svg>
