<?xml version="1.0" encoding="UTF-8" standalone="no"?>
<!DOCTYPE svg PUBLIC "-//W3C//DTD SVG 1.1//EN" "http://www.w3.org/Graphics/SVG/1.1/DTD/svg11.dtd">
<svg width="100%" height="100%" viewBox="0 0 3000 3508" version="1.1" xmlns="http://www.w3.org/2000/svg" xmlns:xlink="http://www.w3.org/1999/xlink" xml:space="preserve" xmlns:serif="http://www.serif.com/" style="fill-rule:evenodd;clip-rule:evenodd;stroke-linejoin:round;stroke-miterlimit:2;">
    <g transform="matrix(0.681456,0,0,0.681456,81.502637,425.019477)">
        <path d="M657.925,1477.721L805.807,1585.164L731.866,1686.935L851.505,1725.808L795.019,1899.653L675.38,1860.78L675.38,1986.576L492.588,1986.576L492.588,1860.78L372.949,1899.653L316.464,1725.808L436.103,1686.935L362.162,1585.164L510.043,1477.721L583.984,1579.492L657.925,1477.721Z" style="fill:rgb(49,210,201);"/>
    </g>
    <g transform="matrix(1,0,0,1,438,-81.230976)">
        <path d="M456.969,1539.855L456.969,1590.832L370.836,1590.832L370.836,1827.746L310.289,1827.746L310.289,1590.832L223.766,1590.832L223.766,1539.855L456.969,1539.855Z" style="fill:rgb(248,248,248);fill-rule:nonzero;"/>
        <path d="M537.828,1614.855L537.828,1827.746L481.383,1827.746L481.383,1614.855L537.828,1614.855ZM537.828,1538.098L481.383,1589.465L481.383,1538.098L537.828,1538.098Z" style="fill:rgb(248,248,248);fill-rule:nonzero;"/>
        <path d="M775.914,1691.223L718.883,1691.223C717.841,1683.28 715.172,1676.119 710.875,1669.738C704.625,1661.145 694.924,1656.848 681.773,1656.848C663.023,1656.848 650.198,1666.158 643.297,1684.777C639.651,1694.673 637.828,1707.824 637.828,1724.23C637.828,1739.855 639.651,1752.421 643.297,1761.926C649.937,1779.634 662.437,1788.488 680.797,1788.488C693.818,1788.488 703.062,1784.973 708.531,1777.941C714,1770.91 717.32,1761.796 718.492,1750.598L775.328,1750.598C774.026,1767.525 767.906,1783.54 756.969,1798.645C739.521,1822.994 713.674,1835.168 679.43,1835.168C645.185,1835.168 619.99,1825.012 603.844,1804.699C587.698,1784.387 579.625,1758.02 579.625,1725.598C579.625,1689.009 588.544,1660.559 606.383,1640.246C624.221,1619.934 648.831,1609.777 680.211,1609.777C706.904,1609.777 728.746,1615.767 745.738,1627.746C762.73,1639.725 772.789,1660.884 775.914,1691.223Z" style="fill:rgb(248,248,248);fill-rule:nonzero;"/>
        <path d="M1009.508,1827.746L942.32,1827.746L891.344,1736.73L868.297,1760.754L868.297,1827.746L813.609,1827.746L813.609,1540.832L868.297,1540.832L868.297,1695.91L937.633,1615.832L1006.578,1615.832L932.164,1697.277L1009.508,1827.746Z" style="fill:rgb(248,248,248);fill-rule:nonzero;"/>
        <path d="M1218.883,1765.246C1217.45,1777.876 1210.875,1790.702 1199.156,1803.723C1180.927,1824.426 1155.406,1834.777 1122.594,1834.777C1095.51,1834.777 1071.617,1826.053 1050.914,1808.605C1030.211,1791.158 1019.859,1762.772 1019.859,1723.449C1019.859,1686.6 1029.202,1658.345 1047.887,1638.684C1066.572,1619.022 1090.823,1609.191 1120.641,1609.191C1138.349,1609.191 1154.299,1612.512 1168.492,1619.152C1182.685,1625.793 1194.404,1636.275 1203.648,1650.598C1211.982,1663.228 1217.385,1677.876 1219.859,1694.543C1221.292,1704.309 1221.878,1718.371 1221.617,1736.73L1075.914,1736.73C1076.695,1758.085 1083.401,1773.059 1096.031,1781.652C1103.713,1786.991 1112.958,1789.66 1123.766,1789.66C1135.224,1789.66 1144.534,1786.405 1151.695,1779.895C1155.602,1776.379 1159.052,1771.496 1162.047,1765.246L1218.883,1765.246ZM1163.805,1700.012C1162.893,1685.298 1158.434,1674.133 1150.426,1666.516C1142.418,1658.898 1132.49,1655.09 1120.641,1655.09C1107.75,1655.09 1097.756,1659.126 1090.66,1667.199C1083.564,1675.272 1079.104,1686.21 1077.281,1700.012L1163.805,1700.012Z" style="fill:rgb(248,248,248);fill-rule:nonzero;"/>
        <path d="M1356.578,1788.098L1356.578,1829.699L1330.211,1830.676C1303.909,1831.587 1285.94,1827.03 1276.305,1817.004C1270.055,1810.624 1266.93,1800.793 1266.93,1787.512L1266.93,1656.457L1237.242,1656.457L1237.242,1616.809L1266.93,1616.809L1266.93,1557.434L1322.008,1557.434L1322.008,1616.809L1356.578,1616.809L1356.578,1656.457L1322.008,1656.457L1322.008,1768.957C1322.008,1777.681 1323.115,1783.117 1325.328,1785.266C1327.542,1787.414 1334.312,1788.488 1345.641,1788.488C1347.333,1788.488 1349.124,1788.456 1351.012,1788.391C1352.9,1788.326 1354.755,1788.228 1356.578,1788.098Z" style="fill:rgb(248,248,248);fill-rule:nonzero;"/>
    </g>
    <g transform="matrix(1,0,0,1,1432.199593,-599.776765)">
        <path d="M408.571,2058.401L468.727,2058.401L468.727,2294.534L611.306,2294.534L611.306,2346.292L408.571,2346.292L408.571,2058.401Z" style="fill:rgb(248,248,248);fill-rule:nonzero;"/>
        <path d="M705.641,2133.401L705.641,2346.292L649.196,2346.292L649.196,2133.401L705.641,2133.401ZM705.641,2056.643L706.196,2104.011L649.196,2056.643L705.641,2056.643Z" style="fill:rgb(248,248,248);fill-rule:nonzero;"/>
        <path d="M738.649,2133.401L801.149,2133.401L845.485,2290.433L890.798,2133.401L950.563,2133.401L873.806,2346.292L815.016,2346.292L738.649,2133.401Z" style="fill:rgb(248,248,248);fill-rule:nonzero;"/>
        <path d="M1164.235,2283.792C1162.803,2296.422 1156.227,2309.248 1144.509,2322.268C1126.279,2342.972 1100.759,2353.323 1067.946,2353.323C1040.863,2353.323 1016.97,2344.599 996.266,2327.151C975.563,2309.703 965.212,2281.318 965.212,2241.995C965.212,2205.146 974.554,2176.891 993.239,2157.229C1011.924,2137.568 1036.175,2127.737 1065.993,2127.737C1083.701,2127.737 1099.652,2131.058 1113.845,2137.698C1128.037,2144.339 1139.756,2154.821 1149.001,2169.143C1157.334,2181.774 1162.738,2196.422 1165.212,2213.089C1166.644,2222.854 1167.23,2236.917 1166.97,2255.276L1021.266,2255.276C1022.048,2276.63 1028.753,2291.604 1041.384,2300.198C1049.066,2305.537 1058.311,2308.206 1069.118,2308.206C1080.576,2308.206 1089.886,2304.951 1097.048,2298.44C1100.954,2294.925 1104.404,2290.042 1107.399,2283.792L1164.235,2283.792ZM1109.157,2218.558C1108.246,2203.844 1103.786,2192.679 1095.778,2185.061C1087.77,2177.444 1077.842,2173.636 1065.993,2173.636C1053.102,2173.636 1043.109,2177.672 1036.013,2185.745C1028.916,2193.818 1024.457,2204.755 1022.634,2218.558L1109.157,2218.558Z" style="fill:rgb(248,248,248);fill-rule:nonzero;"/>
    </g>
</svg>
